<?xml version="1.0" standalone="no"?>
<!DOCTYPE svg PUBLIC "-//W3C//DTD SVG 20010904//EN"
 "http://www.w3.org/TR/2001/REC-SVG-20010904/DTD/svg10.dtd">
<svg version="1.0" xmlns="http://www.w3.org/2000/svg"
 width="48.000000pt" height="48.000000pt" viewBox="0 0 48.000000 48.000000"
 preserveAspectRatio="xMidYMid meet">
<metadata>
Created by potrace 1.15, written by Peter Selinger 2001-2017
</metadata>
<g transform="translate(0.000000,48.000000) scale(0.100000,-0.100000)"
fill="#000000" stroke="none">
<path d="M100 420 c0 -18 7 -20 66 -20 l66 0 -26 -34 c-31 -42 -32 -46 -6 -46
18 0 20 -7 20 -80 0 -73 -2 -80 -20 -80 -26 0 -25 -4 6 -46 l26 -34 -66 0
c-59 0 -66 -2 -66 -20 0 -19 7 -20 140 -20 133 0 140 1 140 20 0 18 -7 20 -66
20 l-66 0 26 34 c31 42 32 46 6 46 -18 0 -20 7 -20 80 0 73 2 80 20 80 26 0
25 4 -6 46 l-26 34 66 0 c59 0 66 2 66 20 0 19 -7 20 -140 20 -133 0 -140 -1
-140 -20z"/>
</g>
</svg>
