<?xml version="1.0" standalone="no"?>
<!DOCTYPE svg PUBLIC "-//W3C//DTD SVG 20010904//EN"
 "http://www.w3.org/TR/2001/REC-SVG-20010904/DTD/svg10.dtd">
<svg version="1.0" xmlns="http://www.w3.org/2000/svg"
 width="60.000000pt" height="60.000000pt" viewBox="0 0 60.000000 60.000000"
 preserveAspectRatio="xMidYMid meet">
<metadata>
Created by potrace 1.15, written by Peter Selinger 2001-2017
</metadata>
<g transform="translate(0.000000,60.000000) scale(0.100000,-0.100000)"
fill="#000000" stroke="none">
<path d="M237 503 c-66 -91 -70 -105 -51 -171 9 -31 28 -85 42 -119 14 -35 23
-65 20 -68 -3 -3 -28 -14 -57 -24 -62 -22 -67 -26 -51 -46 10 -12 32 -15 102
-13 111 2 129 12 109 60 -7 18 -17 78 -21 133 -4 55 -10 107 -13 115 -5 11 9
24 46 45 53 31 97 84 97 116 0 17 -9 19 -94 19 l-94 0 -35 -47z"/>
</g>
</svg>
