<?xml version="1.0" standalone="no"?>
<!DOCTYPE svg PUBLIC "-//W3C//DTD SVG 20010904//EN"
 "http://www.w3.org/TR/2001/REC-SVG-20010904/DTD/svg10.dtd">
<svg version="1.0" xmlns="http://www.w3.org/2000/svg"
 width="96.000000pt" height="96.000000pt" viewBox="0 0 96.000000 96.000000"
 preserveAspectRatio="xMidYMid meet">
<metadata>
Created by potrace 1.15, written by Peter Selinger 2001-2017
</metadata>
<g transform="translate(0.000000,96.000000) scale(0.100000,-0.100000)"
fill="#000000" stroke="none">
<path d="M294 860 c-11 -4 -33 -22 -47 -40 -34 -39 -35 -86 -6 -182 l20 -69
-27 -27 c-47 -47 -78 -128 -79 -208 0 -62 4 -80 35 -140 21 -41 45 -74 60 -81
32 -16 408 -18 442 -3 53 25 98 130 98 229 0 74 -31 155 -77 203 l-26 27 21
73 c27 90 27 124 2 165 -34 56 -61 63 -237 62 -87 0 -167 -4 -179 -9z m326
-70 c37 -20 42 -46 23 -108 -9 -31 -18 -58 -18 -60 -1 -1 -31 5 -66 14 -71 18
-161 14 -207 -10 l-28 -14 -18 63 c-20 70 -16 97 17 113 28 14 272 15 297 2z"/>
</g>
</svg>
